#!OML:ASF X:\für Bonn\!DataBase\2005_08_11_Bastian_Final\c3d\Bastian.ASF
:FULLY-SPECIFIED
:DEGREES
52
root 2.4869 18.665 -35.4322 550.702 -185.073 -181.491
lowerback 1.09962 -1.39109 0.16467
upperback 0.509236 -1.85486 -1.30563
thorax -0.143327 -0.925869 -1.40556
lowerneck -4.46962 -3.90042 -2.48631
upperneck -5.50355 -4.84584 9.41174
head -0.651894 -2.44486 3.41379
rclavicle 1.03368e-014 7.15625e-015
rhumerus -26.2721 35.9862 -77.2561
rradius 104.39
rwrist 3.61151
rhand -12.6467 20.1668
rfingers 7.12502
rthumb 13.4338 -9.38002
lclavicle 1.03368e-014 7.15625e-015
lhumerus -13.0095 -9.24498 75.2363
lradius 111.609
lwrist -145.166
lhand -32.2516 19.3767
lfingers 7.12502
lthumb -5.49164 49.2856
rfemur -6.08924 1.52049 22.214
rtibia 44.0882
rfoot 10.634 3.17053
rtoes -31.7377
lfemur -6.74256 -4.93664 -14.9808
ltibia 43.8089
lfoot 16.8892 -3.47449
ltoes -18.6974
53
root 2.47023 18.9674 -35.177 550.559 -185.393 -181.501
lowerback 0.857111 -1.45899 0.0322617
upperback 0.431033 -1.9459 -1.26779
thorax -0.0841786 -0.971664 -1.29702
lowerneck -4.61587 -3.95618 -2.66646
upperneck -4.35269 -4.9952 9.39143
head -0.244594 -2.48631 3.41392
rclavicle 1.15295e-014 8.74653e-015
rhumerus -27.6385 35.6274 -77.4424
rradius 106.124
rwrist 2.9721
rhand -11.7631 20.2371
rfingers 7.12502
rthumb 14.2853 -9.2515
lclavicle 1.15295e-014 8.74653e-015
lhumerus -13.9512 -8.79154 75.4371
lradius 113.079
lwrist -144.524
lhand -32.1852 19.3651
lfingers 7.12502
lthumb -5.42756 49.2756
rfemur -6.45673 1.49031 22.4212
rtibia 45.5136
rfoot 13.2921 3.34284
rtoes -31.1411
lfemur -7.41981 -5.11389 -14.7686
ltibia 45.147
lfoot 18.3669 -2.30666
ltoes -16.2892
54
root 2.45436 19.256 -34.948 550.451 -185.737 -181.519
lowerback 0.886455 -1.52379 -0.0363996
upperback 0.350381 -2.03393 -1.25613
thorax -0.182352 -1.01625 -1.24345
lowerneck -4.87711 -4.02665 -2.79543
upperneck -3.33572 -5.15537 9.38496
head 0.139506 -2.53512 3.41196
rclavicle 1.72943e-014 3.97569e-015
rhumerus -29.1133 35.2454 -77.7742
rradius 107.786
rwrist 2.24793
rhand -11.7179 20.6396
rfingers 7.12502
rthumb 14.3288 -8.84594
lclavicle 1.72943e-014 3.97569e-015
lhumerus -14.8319 -8.24988 75.6032
lradius 114.466
lwrist -143.999
lhand -32.4218 19.5288
lfingers 7.12502
lthumb -5.65595 49.4333
rfemur -7.32245 1.24353 22.5891
rtibia 47.7551
rfoot 15.2021 3.49736
rtoes -29.1801
lfemur -8.53068 -5.06706 -14.5285
ltibia 47.1553
lfoot 18.7519 -1.40991
ltoes -15.1441
55
root 2.4398 19.5219 -34.7406 550.404 -186.115 -181.509
lowerback 1.03947 -1.58455 -0.107825
upperback 0.311883 -2.11715 -1.24444
thorax -0.306207 -1.0582 -1.18519
lowerneck -5.22787 -4.10757 -2.79472
upperneck -2.51267 -5.32077 9.26972
head 0.470552 -2.59095 3.35099
rclavicle -5.1684e-015 -8.74653e-015
rhumerus -30.6493 34.8031 -78.1875
rradius 109.174
rwrist 2.11322
rhand -12.3474 21.5187
rfingers 7.12502
rthumb 13.7222 -8.00881
lclavicle -5.1684e-015 -8.74653e-015
lhumerus -15.5806 -7.67897 75.7584
lradius 115.724
lwrist -143.485
lhand -32.8865 19.6206
lfingers 7.12502
lthumb -6.10464 49.5126
rfemur -8.58919 0.731362 22.6866
rtibia 50.6307
rfoot 16.6269 3.76108
rtoes -26.3143
lfemur -10.0461 -4.91272 -14.3184
ltibia 49.7277
lfoot 18.3855 -0.66234
ltoes -15.2749
56
root 2.4274 19.7676 -34.5483 550.455 -186.514 -181.538
lowerback 1.29237 -1.63131 -0.0695739
upperback 0.262884 -2.1816 -1.24696
thorax -0.500802 -1.09096 -1.19935
lowerneck -5.54092 -4.20775 -2.7807
upperneck -1.93315 -5.49532 9.22619
head 0.720298 -2.65773 3.3164
rclavicle 1.98785e-016 -8.74653e-015
rhumerus -32.3166 34.2504 -78.7098
rradius 110.609
rwrist 2.18362
rhand -12.6458 22.0053
rfingers 7.12502
rthumb 13.4346 -7.54151
lclavicle 1.98785e-016 -8.74653e-015
lhumerus -16.2483 -7.20716 75.7762
lradius 116.886
lwrist -142.903
lhand -33.4857 19.4967
lfingers 7.12502
lthumb -6.68311 49.3713
rfemur -10.2117 0.0221532 22.8026
rtibia 53.9979
rfoot 17.6454 3.91373
rtoes -23.0757
lfemur -11.9129 -4.63349 -14.0641
ltibia 52.6955
lfoot 17.7631 -0.0514059
ltoes -15.1639
57
root 2.41792 20.0151 -34.3538 550.425 -186.874 -181.594
lowerback 1.72964 -1.66668 0.0352888
upperback 0.264181 -2.23001 -1.2372
thorax -0.74896 -1.11583 -1.23312
lowerneck -5.87542 -4.29821 -2.72689
upperneck -1.48875 -5.64878 9.13167
head 0.926239 -2.71723 3.25872
rclavicle 6.16232e-015 2.22639e-014
rhumerus -34.0073 33.6682 -79.1959
rradius 112.146
rwrist 2.06091
rhand -12.9002 22.5137
rfingers 7.12502
rthumb 13.1894 -7.04914
lclavicle 6.16232e-015 2.22639e-014
lhumerus -16.8711 -6.79913 75.7295
lradius 117.918
lwrist -142.299
lhand -34.0763 19.288
lfingers 7.12502
lthumb -7.25323 49.1437
rfemur -11.8621 -0.64006 22.9679
rtibia 57.6426
rfoot 18.3487 3.70743
rtoes -19.6003
lfemur -13.7727 -4.27981 -13.8234
ltibia 55.8642
lfoot 16.9491 0.408429
ltoes -15.3906
58
root 2.40958 20.2534 -34.1617 550.213 -187.264 -181.647
lowerback 2.4158 -1.704 0.182803
upperback 0.396268 -2.2786 -1.24251
thorax -1.00493 -1.14055 -1.30014
lowerneck -6.18815 -4.40244 -2.6269
upperneck -1.28205 -5.8072 9.05048
head 1.05106 -2.78534 3.19892
rclavicle -4.27387e-014 -1.11319e-014
rhumerus -35.6903 33.0785 -79.6402
rradius 113.715
rwrist 1.87619
rhand -13.2935 23.0397
rfingers 7.12502
rthumb 12.8102 -6.54722
lclavicle -4.27387e-014 -1.11319e-014
lhumerus -17.3377 -6.43803 75.6204
lradius 118.806
lwrist -141.679
lhand -34.6371 19.2284
lfingers 7.12502
lthumb -7.79447 49.0648
rfemur -13.5038 -1.58036 23.0605
rtibia 61.4859
rfoot 18.8225 3.12748
rtoes -15.4162
lfemur -15.4801 -3.91866 -13.6191
ltibia 59.0874
lfoot 15.9492 0.676816
ltoes -16.3262
59
root 2.40229 20.4697 -33.9758 549.816 -187.662 -181.762
lowerback 3.32875 -1.75582 0.402645
upperback 0.612145 -2.34099 -1.22248
thorax -1.30414 -1.17218 -1.37459
lowerneck -6.17167 -4.47843 -2.46579
upperneck -1.44756 -5.9061 8.91657
head 0.989334 -2.84119 3.12065
rclavicle 4.17448e-015 -8.74653e-015
rhumerus -37.3975 32.4489 -80.1082
rradius 115.278
rwrist 1.40341
rhand -13.3524 23.654
rfingers 7.12502
rthumb 12.7535 -5.93652
lclavicle 4.17448e-015 -8.74653e-015
lhumerus -17.7572 -6.11756 75.4643
lradius 119.56
lwrist -140.951
lhand -35.0241 19.2188
lfingers 7.12502
lthumb -8.16805 49.0409
rfemur -15.1062 -2.58625 23.1921
rtibia 65.4459
rfoot 19.0769 2.20738
rtoes -11.7811
lfemur -17.0293 -3.52488 -13.393
ltibia 62.2592
lfoot 14.9683 0.737981
ltoes -17.3912
60
root 2.3948 20.6646 -33.803 549.308 -187.962 -181.831
lowerback 4.44949 -1.79653 0.560986
upperback 0.91549 -2.38554 -1.1965
thorax -1.62618 -1.19413 -1.40332
lowerneck -6.09857 -4.56066 -2.25249
upperneck -1.84135 -5.99965 8.64581
head 0.83632 -2.90289 2.99009
rclavicle -3.99557e-014 -2.54444e-014
rhumerus -39.0099 31.8632 -80.5279
rradius 116.843
rwrist 0.917733
rhand -13.2107 23.9756
rfingers 7.12502
rthumb 12.8901 -5.60631
lclavicle -3.99557e-014 -2.54444e-014
lhumerus -18.0525 -5.84443 75.3078
lradius 119.966
lwrist -140.333
lhand -35.502 18.9529
lfingers 7.12502
lthumb -8.62923 48.7565
rfemur -16.6725 -3.55413 23.2344
rtibia 69.4201
rfoot 19.09 1.13285
rtoes -9.37252
lfemur -18.5645 -3.06055 -13.2548
ltibia 65.4094
lfoot 14.2369 0.512906
ltoes -18.3305
